<svg width="80" height="49" viewBox="0 0 80 49" fill="none" xmlns="http://www.w3.org/2000/svg">
<g id="Vector">
<path d="M0.649866 32.2066L3.3793 31.5164V2.07042L0.649866 1.38028V0.69014H12.9323C17.542 0.69014 20.9235 1.44163 23.0767 2.9446C25.2603 4.4169 26.3521 6.3493 26.3521 8.74178C26.3521 10.3981 25.882 11.7324 24.9419 12.7446C24.0017 13.7568 22.8038 14.5083 21.3481 14.9991C19.8014 15.5512 18.1334 15.8426 16.3441 15.8732V16.1033C18.558 16.1953 20.4838 16.5327 22.1214 17.1155C23.7894 17.6676 25.1693 18.5264 26.2611 19.692C27.3832 20.8576 27.9442 22.3452 27.9442 24.1549C27.9442 26.8848 26.8373 29.0319 24.6234 30.5962C22.4095 32.1299 18.8158 32.8967 13.8421 32.8967H0.649866V32.2066ZM12.9323 15.4131C13.9331 15.4131 14.8581 15.1371 15.7073 14.585C16.5867 14.0022 17.2843 13.2047 17.7998 12.1925C18.3457 11.1496 18.6187 9.99937 18.6187 8.74178C18.6187 7.39218 18.3457 6.19593 17.7998 5.15305C17.2843 4.11017 16.5867 3.29734 15.7073 2.71455C14.8581 2.13177 13.9331 1.84038 12.9323 1.84038H10.8853V15.4131H12.9323ZM13.8421 31.7465C15.7224 31.7465 17.2539 31.0717 18.4367 29.7221C19.6194 28.3725 20.2108 26.5167 20.2108 24.1549C20.2108 21.7931 19.6194 19.9374 18.4367 18.5878C17.2539 17.2382 15.7224 16.5634 13.8421 16.5634H10.8853V31.7465H13.8421Z" fill="#161616"/>
<path d="M31.5693 32.8967V32.2066L34.2987 31.5164V2.07042L31.5693 1.38028V0.69014H44.5341V1.38028L41.8046 2.07042V31.5164L44.5341 32.2066V32.8967H31.5693Z" fill="#161616"/>
<path d="M61.5824 33.5869C59.2775 33.5869 57.1546 32.9274 55.2137 31.6085C53.2728 30.2895 51.7261 28.3725 50.5737 25.8573C49.4212 23.3114 48.845 20.2901 48.845 16.7934C48.845 13.266 49.4364 10.2448 50.6192 7.72958C51.8322 5.18372 53.5154 3.26667 55.6686 1.9784C57.8522 0.659468 60.3693 0 63.2201 0C64.9487 0 66.6925 0.506103 68.4515 1.51831C69.1187 1.88639 69.7859 2.37715 70.4531 2.99061C70.9686 2.19311 71.4994 1.56432 72.0452 1.10422C72.5911 0.705476 72.8944 0.490766 72.9551 0.460093H74.0923V9.20188H72.2727C71.8784 7.72958 71.2871 6.39531 70.4986 5.19906C69.7707 4.03349 68.8609 3.06729 67.7691 2.30047C66.7077 1.53365 65.4794 1.15023 64.0844 1.15023C61.9918 1.15023 60.248 2.37715 58.853 4.83099C57.4882 7.28482 56.8059 11.2723 56.8059 16.7934C56.8059 22.3146 57.4124 26.2254 58.6255 28.5258C59.8689 30.8263 61.4611 31.9765 63.402 31.9765C64.5241 31.9765 65.5401 31.3631 66.4499 30.1362C66.7835 29.6761 67.1323 29.0626 67.4962 28.2958V17.7136L64.7667 17.0235V16.3333H77.7316V17.0235L75.0021 17.7136V33.1268H74.3198C72.1059 33.1268 70.4227 32.5133 69.2703 31.2864C68.7548 30.7343 68.3908 30.1208 68.1785 29.446C67.754 30.2128 67.2536 30.903 66.6774 31.5164C65.3126 32.8967 63.6143 33.5869 61.5824 33.5869Z" fill="#161616"/>
<path d="M0 46.1737L0.779839 45.9765V37.5634L0 37.3662V37.169H3.50928C4.82634 37.169 5.79247 37.3837 6.40768 37.8131C7.03155 38.2338 7.34348 38.7859 7.34348 39.4695C7.34348 39.9427 7.20918 40.3239 6.94057 40.6131C6.67196 40.9023 6.32969 41.1171 5.91378 41.2573C5.47187 41.415 4.9953 41.4983 4.48407 41.507V41.5728C5.11661 41.5991 5.66683 41.6955 6.13473 41.862C6.6113 42.0197 7.00555 42.2651 7.31749 42.5981C7.63809 42.9311 7.79839 43.3562 7.79839 43.8732C7.79839 44.6532 7.48212 45.2667 6.84959 45.7136C6.21705 46.1518 5.19026 46.3709 3.76922 46.3709H0V46.1737ZM3.50928 41.3756C3.79522 41.3756 4.0595 41.2967 4.30211 41.139C4.55339 40.9725 4.75269 40.7446 4.89999 40.4554C5.05596 40.1574 5.13394 39.8288 5.13394 39.4695C5.13394 39.0839 5.05596 38.7421 4.89999 38.4441C4.75269 38.1462 4.55339 37.9139 4.30211 37.7474C4.0595 37.5809 3.79522 37.4977 3.50928 37.4977H2.9244V41.3756H3.50928ZM3.76922 46.0423C4.30644 46.0423 4.74402 45.8495 5.08195 45.4639C5.41988 45.0783 5.58885 44.548 5.58885 43.8732C5.58885 43.1984 5.41988 42.6682 5.08195 42.2826C4.74402 41.897 4.30644 41.7042 3.76922 41.7042H2.9244V46.0423H3.76922Z" fill="#161616"/>
<path d="M11.2386 46.5681C10.4674 46.5681 9.8739 46.4016 9.45798 46.0685C9.04207 45.7355 8.83411 45.3105 8.83411 44.7934C8.83411 44.4516 8.90776 44.1142 9.05507 43.7812C9.11572 43.6235 9.19371 43.4789 9.28902 43.3474C9.64428 43.2598 10.0299 43.1809 10.4458 43.1108C11.3816 42.9531 12.2091 42.8567 12.9283 42.8216V42.4272C12.9283 41.4545 12.8113 40.784 12.5773 40.416C12.3434 40.0479 11.9838 39.8638 11.4986 39.8638C11.3166 39.8638 11.1606 39.8858 11.0307 39.9296L10.8487 39.9953V41.9671L10.6797 42.0066C10.5411 42.0241 10.4241 42.0329 10.3288 42.0329C10.0342 42.0329 9.79591 41.9452 9.61395 41.77C9.44065 41.5859 9.35401 41.3449 9.35401 41.0469C9.35401 40.6438 9.5533 40.302 9.95188 40.0216C10.3591 39.7412 10.9613 39.6009 11.7585 39.6009C12.4344 39.6009 13.0149 39.7236 13.5001 39.969C13.994 40.2056 14.3666 40.5387 14.6179 40.9681C14.8779 41.3887 15.0078 41.8751 15.0078 42.4272V45.9765L15.7877 46.1737V46.3709H14.6179C14.098 46.3709 13.6951 46.2088 13.4092 45.8845C13.2879 45.7531 13.1925 45.5865 13.1232 45.385C13.0019 45.6041 12.8589 45.8013 12.6943 45.9765C12.3044 46.3709 11.8192 46.5681 11.2386 46.5681ZM11.7585 46.108C12.0791 46.108 12.3694 45.9327 12.6293 45.5822C12.7246 45.4507 12.8243 45.2754 12.9283 45.0563V43.1502C12.5297 43.1502 12.1484 43.1721 11.7845 43.216C11.5159 43.251 11.3339 43.2729 11.2386 43.2817C11.1953 43.3781 11.152 43.5095 11.1086 43.6761C11.022 44.0091 10.9787 44.3377 10.9787 44.662C10.9787 45.1527 11.0523 45.5164 11.1996 45.7531C11.3469 45.9897 11.5332 46.108 11.7585 46.108Z" fill="#161616"/>
<path d="M16.5736 46.1737L17.3534 45.9765V40.1925L16.5736 39.9953V39.7981H17.7434C18.2546 39.7981 18.6575 39.9646 18.9521 40.2977C19.0648 40.4291 19.1601 40.5912 19.2381 40.784C19.368 40.5912 19.5283 40.416 19.719 40.2582C20.1522 39.9077 20.6374 39.7324 21.1747 39.7324C21.6339 39.7324 21.9762 39.8419 22.2014 40.061C22.4354 40.2714 22.5524 40.5781 22.5524 40.9812C22.5524 41.2792 22.4614 41.5202 22.2794 41.7042C22.1061 41.8795 21.8722 41.9671 21.5776 41.9671C21.4563 41.9671 21.335 41.9584 21.2136 41.9408L21.0577 41.9014V40.061C20.6158 40.061 20.2129 40.2363 19.8489 40.5869C19.6756 40.7621 19.537 40.9374 19.433 41.1127V45.9765L20.2129 46.1737V46.3709H16.5736V46.1737Z" fill="#161616"/>
<path d="M27.4248 46.5681C26.8443 46.5681 26.3591 46.3709 25.9691 45.9765C25.8045 45.8013 25.6615 45.6041 25.5402 45.385C25.4796 45.5778 25.3756 45.7531 25.2283 45.9108C24.899 46.2613 24.4181 46.4366 23.7856 46.4366H23.6556V37.5634L22.8758 37.3662V37.169H24.5654C25.3453 37.169 25.7352 37.5634 25.7352 38.3521V40.1268C25.8738 40.0128 26.0081 39.9252 26.1381 39.8638C26.45 39.6886 26.814 39.6009 27.2299 39.6009C28.105 39.6009 28.7982 39.9033 29.3095 40.508C29.8293 41.1039 30.0893 41.9628 30.0893 43.0845C30.0893 43.8294 29.9723 44.4648 29.7384 44.9906C29.5044 45.5077 29.1881 45.902 28.7896 46.1737C28.391 46.4366 27.9361 46.5681 27.4248 46.5681ZM26.905 46.108C27.1822 46.108 27.4118 45.8889 27.5938 45.4507C27.7844 45.0038 27.8798 44.215 27.8798 43.0845C27.8798 41.9014 27.7758 41.0908 27.5678 40.6526C27.3685 40.2144 27.0826 39.9953 26.71 39.9953C26.4847 39.9953 26.2551 40.0829 26.0211 40.2582C25.9518 40.3108 25.8565 40.3984 25.7352 40.5211V45.0563C25.8132 45.2579 25.9085 45.4332 26.0211 45.5822C26.2811 45.9327 26.5757 46.108 26.905 46.108Z" fill="#161616"/>
<path d="M34.6414 46.5681C33.5323 46.5681 32.6701 46.2613 32.0549 45.6479C31.4397 45.0257 31.1321 44.1712 31.1321 43.0845C31.1321 42.3746 31.2664 41.7568 31.535 41.231C31.8037 40.7052 32.1762 40.302 32.6528 40.0216C33.138 39.7412 33.6926 39.6009 34.3165 39.6009C34.9403 39.6009 35.4862 39.7192 35.9541 39.9559C36.4307 40.1925 36.7946 40.5124 37.0459 40.9155C37.3059 41.3099 37.4358 41.748 37.4358 42.23C37.4358 42.4491 37.4142 42.6376 37.3708 42.7953L37.3059 43.0188C36.9333 43.0977 36.5303 43.1634 36.0971 43.216C35.1873 43.3474 34.2688 43.4131 33.3417 43.4131C33.3417 44.4297 33.4803 45.1571 33.7576 45.5953C34.0349 46.0247 34.4161 46.2394 34.9013 46.2394C35.2393 46.2394 35.5512 46.1606 35.8372 46.0028C36.1318 45.8363 36.3614 45.6216 36.526 45.3587C36.6993 45.087 36.786 44.811 36.786 44.5305H37.1109C37.1109 44.8811 37.0069 45.2141 36.799 45.5296C36.591 45.8451 36.3007 46.0992 35.9281 46.292C35.5555 46.4761 35.1266 46.5681 34.6414 46.5681ZM33.3417 43.0845C33.8962 43.0845 34.3468 43.0626 34.6934 43.0188C34.8407 43.01 34.9967 42.9881 35.1613 42.953C35.17 42.9092 35.1916 42.8128 35.2263 42.6639C35.2696 42.4448 35.2913 42.2125 35.2913 41.9671C35.2913 41.2397 35.196 40.7095 35.0053 40.3765C34.8147 40.0347 34.5851 39.8638 34.3165 39.8638C33.6666 39.8638 33.3417 40.9374 33.3417 43.0845Z" fill="#161616"/>
<path d="M38.405 46.1737L39.1849 45.9765V40.1925L38.405 39.9953V39.7981H39.5748C40.086 39.7981 40.4889 39.9646 40.7835 40.2977C40.8962 40.4291 40.9915 40.5912 41.0695 40.784C41.1995 40.5912 41.3598 40.416 41.5504 40.2582C41.9836 39.9077 42.4689 39.7324 43.0061 39.7324C43.4653 39.7324 43.8076 39.8419 44.0329 40.061C44.2668 40.2714 44.3838 40.5781 44.3838 40.9812C44.3838 41.2792 44.2928 41.5202 44.1109 41.7042C43.9376 41.8795 43.7036 41.9671 43.409 41.9671C43.2877 41.9671 43.1664 41.9584 43.0451 41.9408L42.8891 41.9014V40.061C42.4472 40.061 42.0443 40.2363 41.6804 40.5869C41.5071 40.7621 41.3684 40.9374 41.2645 41.1127V45.9765L42.0443 46.1737V46.3709H38.405V46.1737Z" fill="#161616"/>
<path d="M51.9243 46.5681C51.3091 46.5681 50.7329 46.4279 50.1956 46.1474C49.953 46.0247 49.7494 45.8801 49.5848 45.7136C49.4635 45.9152 49.3118 46.0948 49.1299 46.2526C48.9739 46.3665 48.8872 46.4279 48.8699 46.4366H48.545V43.939H49.0649C49.1948 44.3684 49.3768 44.754 49.6108 45.0958C50.1393 45.8582 50.8238 46.2394 51.6643 46.2394C52.1582 46.2394 52.5525 46.0905 52.8471 45.7925C53.1417 45.4945 53.289 45.0958 53.289 44.5962C53.289 44.307 53.2023 44.0485 53.029 43.8207C52.8644 43.5928 52.6565 43.3912 52.4052 43.216C52.1539 43.0407 51.803 42.8216 51.3524 42.5587C50.7805 42.2344 50.3169 41.9408 49.9617 41.6779C49.6064 41.415 49.3032 41.0864 49.0519 40.692C48.8006 40.2889 48.6749 39.8157 48.6749 39.2723C48.6749 38.8429 48.7919 38.4573 49.0259 38.1155C49.2685 37.7649 49.6281 37.4889 50.1047 37.2873C50.5812 37.077 51.1661 36.9718 51.8593 36.9718C52.3619 36.9718 52.8644 37.1164 53.367 37.4056C53.5576 37.5108 53.7482 37.651 53.9389 37.8263C54.0862 37.5984 54.2378 37.4188 54.3938 37.2873C54.5497 37.1734 54.6364 37.112 54.6537 37.1033H54.9786V39.6009H54.4588C54.3461 39.1803 54.1771 38.7991 53.9519 38.4573C53.7439 38.1243 53.484 37.8482 53.172 37.6291C52.8687 37.41 52.5178 37.3005 52.1192 37.3005C51.7813 37.3005 51.491 37.4363 51.2484 37.708C51.0058 37.9797 50.8845 38.3258 50.8845 38.7465C50.8845 39.0707 50.9755 39.3643 51.1574 39.6272C51.3481 39.8814 51.5777 40.1049 51.8463 40.2977C52.1236 40.4905 52.4962 40.7227 52.9641 40.9944C53.5099 41.3099 53.9519 41.5903 54.2898 41.8357C54.6277 42.0811 54.9137 42.3878 55.1476 42.7559C55.3816 43.1152 55.4985 43.5315 55.4985 44.0047C55.4985 44.4779 55.3642 44.9117 55.0956 45.3061C54.827 45.6917 54.4241 45.9984 53.8869 46.2263C53.3496 46.4541 52.6955 46.5681 51.9243 46.5681Z" fill="#161616"/>
<path d="M56.3398 46.1737L57.1197 45.9765V37.5634L56.3398 37.3662V37.169H58.0295C58.8093 37.169 59.1992 37.5634 59.1992 38.3521V40.4554C59.3292 40.2801 59.4635 40.1399 59.6021 40.0347C59.9747 39.7455 60.4036 39.6009 60.8889 39.6009C61.3741 39.6009 61.8074 39.7061 62.1886 39.9164C62.5785 40.118 62.8818 40.3853 63.0984 40.7183C63.315 41.0513 63.4233 41.4019 63.4233 41.77V45.9765L64.2032 46.1737V46.3709H62.5135C61.7337 46.3709 61.3438 45.9765 61.3438 45.1878V41.77C61.3438 41.2178 61.2441 40.7972 61.0448 40.508C60.8542 40.21 60.6289 40.061 60.369 40.061C60.0397 40.061 59.7451 40.2363 59.4852 40.5869C59.3725 40.7358 59.2772 40.9111 59.1992 41.1127V45.9765L59.9791 46.1737V46.3709H56.3398V46.1737Z" fill="#161616"/>
<path d="M68.4278 46.5681C67.3534 46.5681 66.5086 46.2613 65.8933 45.6479C65.2868 45.0257 64.9835 44.1712 64.9835 43.0845C64.9835 41.9978 65.2868 41.1477 65.8933 40.5343C66.5086 39.9121 67.3534 39.6009 68.4278 39.6009C69.5023 39.6009 70.3428 39.9121 70.9493 40.5343C71.5645 41.1477 71.8721 41.9978 71.8721 43.0845C71.8721 44.1712 71.5645 45.0257 70.9493 45.6479C70.3428 46.2613 69.5023 46.5681 68.4278 46.5681ZM68.4278 46.3052C68.7744 46.3052 69.0647 46.0598 69.2986 45.569C69.5413 45.0782 69.6626 44.2501 69.6626 43.0845C69.6626 41.9189 69.5413 41.0908 69.2986 40.6C69.0647 40.1092 68.7744 39.8638 68.4278 39.8638C68.0812 39.8638 67.7866 40.1092 67.544 40.6C67.3101 41.0908 67.1931 41.9189 67.1931 43.0845C67.1931 44.2501 67.3101 45.0782 67.544 45.569C67.7866 46.0598 68.0812 46.3052 68.4278 46.3052Z" fill="#161616"/>
<path d="M72.7865 48.8028L73.5663 48.6056V40.1925L72.7865 39.9953V39.7981H73.9563C74.4675 39.7981 74.8704 39.9646 75.165 40.2977C75.2776 40.4291 75.373 40.5912 75.4509 40.784C75.5636 40.5562 75.7066 40.359 75.8799 40.1925C76.2698 39.7981 76.755 39.6009 77.3356 39.6009C77.8468 39.6009 78.3017 39.7368 78.7003 40.0085C79.0989 40.2714 79.4151 40.6657 79.6491 41.1916C79.883 41.7086 80 42.3396 80 43.0845C80 44.2063 79.7401 45.0695 79.2202 45.6742C78.7089 46.2701 78.0157 46.5681 77.1406 46.5681C76.7247 46.5681 76.3608 46.4804 76.0488 46.3052C75.9188 46.2438 75.7845 46.1562 75.6459 46.0423V48.6056L76.4257 48.8028V49H72.7865V48.8028ZM76.6207 46.1737C76.9933 46.1737 77.2792 45.9546 77.4785 45.5164C77.6865 45.0782 77.7905 44.2676 77.7905 43.0845C77.7905 41.954 77.6951 41.1696 77.5045 40.7315C77.3226 40.2845 77.0929 40.061 76.8157 40.061C76.4864 40.061 76.1918 40.2363 75.9318 40.5869C75.8192 40.7358 75.7239 40.9111 75.6459 41.1127V45.6479C75.7672 45.7706 75.8625 45.8582 75.9318 45.9108C76.1658 46.0861 76.3954 46.1737 76.6207 46.1737Z" fill="#161616"/>
</g>
</svg>
